<svg version="1.1" xmlns="http://www.w3.org/2000/svg" xmlns:xlink="http://www.w3.org/1999/xlink" role="img" width="289" height="90" viewbox="0 0 289 90"><title>DocGuide</title><desc>Generated by logo.svg, https://github.com/bubkoo/logo.svg</desc><path fill="#2b68a7" d="M-0.34 70.35L0.17 67.66L1 67.66Q3.18 67.66 4.90 66.86Q6.63 66.06 7.27 63.06L13.93 31.70Q14.06 31.25 14.12 30.77Q14.18 30.29 14.18 29.90Q14.18 28.18 12.74 27.76Q11.30 27.34 9.58 27.34L8.74 27.34L9.32 24.66L27.24 24.66Q35.88 24.66 40.65 29.10Q45.42 33.55 45.42 42.06Q45.42 47.76 43.75 52.88Q42.09 58 38.82 61.94Q35.56 65.87 30.79 68.11Q26.02 70.35 19.82 70.35L-0.34 70.35M12.84 67.09L18.41 67.09Q24.68 67.09 29.19 63.79Q33.70 60.50 36.07 54.70Q38.44 48.91 38.44 41.36Q38.44 34.38 35.14 31.12Q31.85 27.86 26.28 27.86L21.22 27.86L12.84 67.09ZM62.44 70.99Q57 70.99 53.58 67.70Q50.15 64.40 50.15 57.74Q50.15 54.22 51.30 50.32Q52.46 46.42 54.82 43.02Q57.19 39.63 60.78 37.52Q64.36 35.41 69.22 35.41Q72.62 35.41 75.37 36.75Q78.12 38.10 79.75 41.04Q81.38 43.98 81.38 48.66Q81.38 51.41 80.68 54.45Q79.98 57.49 78.50 60.43Q77.03 63.38 74.79 65.74Q72.55 68.11 69.45 69.55Q66.34 70.99 62.44 70.99M63.14 67.73Q66.28 67.73 68.49 65.71Q70.70 63.70 72.07 60.53Q73.45 57.36 74.09 53.90Q74.73 50.45 74.73 47.57Q74.73 42.77 73.06 40.72Q71.40 38.67 68.46 38.67Q65.96 38.67 64.04 40.02Q62.12 41.36 60.74 43.57Q59.37 45.78 58.50 48.46Q57.64 51.15 57.22 53.87Q56.81 56.59 56.81 58.90Q56.81 63.76 58.54 65.74Q60.26 67.73 63.14 67.73ZM99.37 70.99Q95.91 70.99 93.10 69.52Q90.28 68.05 88.58 65.14Q86.89 62.22 86.89 57.74Q86.89 54.22 88.10 50.32Q89.32 46.42 91.75 43.02Q94.18 39.63 97.74 37.52Q101.29 35.41 105.96 35.41Q110.76 35.41 113.03 37.30Q115.30 39.18 115.30 41.55Q115.30 43.34 113.83 44.69Q112.36 46.03 109.61 46.03Q109.61 42.96 108.42 40.72Q107.24 38.48 104.68 38.48Q102.63 38.48 100.90 39.86Q99.18 41.23 97.80 43.44Q96.42 45.65 95.50 48.30Q94.57 50.96 94.06 53.58Q93.54 56.21 93.54 58.26Q93.54 62.42 95.34 64.69Q97.13 66.96 100.58 66.96Q103.98 66.96 106.22 65.49Q108.46 64.02 109.80 62.35Q110.44 62.80 110.44 63.95Q110.44 65.36 109.26 66.99Q108.07 68.62 105.64 69.81Q103.21 70.99 99.37 70.99ZM136.81 70.99Q127.78 70.99 123.21 66.38Q118.63 61.78 118.63 53.84Q118.63 47.63 120.62 42.22Q122.60 36.82 126.25 32.72Q129.90 28.62 134.95 26.32Q140.01 24.02 146.15 24.02Q152.94 24.02 156.30 26.06Q159.66 28.11 159.66 30.93Q159.66 33.42 157.64 34.70Q155.62 35.98 152.87 35.98Q152.87 32.21 150.95 29.81Q149.03 27.41 144.81 27.41Q140.71 27.41 137.22 29.65Q133.74 31.89 131.11 35.73Q128.49 39.57 127.05 44.50Q125.61 49.42 125.61 54.86Q125.61 60.37 128.46 63.86Q131.30 67.34 137.96 67.34Q139.75 67.34 141.74 67.09Q143.72 66.83 145.19 66.45L147.30 56.27Q147.56 55.25 147.56 54.48Q147.56 52.82 146.18 52.37Q144.81 51.92 142.95 51.92L142.38 51.92L142.95 49.23L159.98 49.23L159.40 51.92L159.14 51.92Q157.35 51.92 155.85 52.72Q154.34 53.52 153.70 56.53L151.27 68.05Q147.75 69.52 144.33 70.26Q140.90 70.99 136.81 70.99ZM190.18 70.99Q187.62 70.99 186.22 69.20Q184.81 67.41 184.81 64.91Q184.81 64.21 184.90 63.18Q185 62.16 185.13 61.14L184.62 61.14Q182.82 64.08 181.10 66.26Q179.37 68.43 177.26 69.68Q175.14 70.93 172.26 70.93Q168.49 70.93 166.95 68.78Q165.42 66.64 165.42 63.82Q165.42 62.22 165.80 60.34Q166.18 58.45 166.57 56.78L169.06 45.58Q169.26 44.69 169.45 43.38Q169.64 42.06 169.64 41.74Q169.64 39.82 168.33 39.28Q167.02 38.74 165.16 38.74L164.65 38.74L165.22 36.05L177.13 36.05L172.90 55.18Q172.52 56.91 172.07 59.22Q171.62 61.52 171.62 62.93Q171.62 64.53 172.26 65.68Q172.90 66.83 174.76 66.83Q176.49 66.83 178.34 65.52Q180.20 64.21 181.93 62.03Q183.66 59.86 184.94 57.23Q186.22 54.61 186.79 51.98L190.12 36.05L196.33 36.05L191.91 56.59Q191.72 57.30 191.50 58.64Q191.27 59.98 191.11 61.39Q190.95 62.80 190.95 63.70Q190.95 66.96 193.06 66.96Q194.15 66.96 195.05 66.61Q195.94 66.26 197.16 65.55L198.31 67.41Q196.90 68.69 194.76 69.84Q192.62 70.99 190.18 70.99ZM213.67 29.65Q212.07 29.65 211.08 28.78Q210.09 27.92 210.09 26.13Q210.09 24.14 211.14 22.90Q212.20 21.65 213.93 21.65Q215.46 21.65 216.49 22.51Q217.51 23.38 217.51 25.17Q217.51 27.66 216.30 28.66Q215.08 29.65 213.67 29.65M209.26 70.99Q206.70 70.99 205.32 69.20Q203.94 67.41 203.94 64.91Q203.94 63.57 204.20 61.71Q204.46 59.86 204.78 58Q205.10 56.14 205.35 54.86L207.85 43.09Q208.04 42.13 208.04 41.42Q208.04 39.70 206.98 39.22Q205.93 38.74 204.14 38.74L203.30 38.74L203.88 36.05L215.34 36.05L210.98 56.59Q210.86 57.30 210.60 58.64Q210.34 59.98 210.18 61.39Q210.02 62.80 210.02 63.70Q210.02 66.96 212.14 66.96Q213.16 66.96 214.34 66.48Q215.53 66 216.74 65.30L217.90 67.15Q216.49 68.43 214.06 69.71Q211.62 70.99 209.26 70.99ZM229.80 70.99Q226.98 70.99 225.13 69.46Q223.27 67.92 222.41 65.26Q221.54 62.61 221.54 59.28Q221.54 56.27 222.34 52.98Q223.14 49.68 224.74 46.58Q226.34 43.47 228.65 40.94Q230.95 38.42 233.96 36.91Q236.97 35.41 240.62 35.41Q242.47 35.41 244.07 35.86Q245.67 36.30 246.95 37.01Q247.08 36.18 247.27 35.06Q247.46 33.94 247.59 33.36L248.23 30.29Q248.42 29.39 248.55 28.59Q248.68 27.79 248.68 27.41Q248.68 25.49 247.37 24.94Q246.06 24.40 244.20 24.40L243.69 24.40L244.26 21.71L256.04 21.71L248.62 56.59Q248.49 57.30 248.23 58.64Q247.98 59.98 247.82 61.39Q247.66 62.80 247.66 63.70Q247.66 66.96 249.77 66.96Q250.79 66.96 251.98 66.48Q253.16 66 254.38 65.30L255.53 67.15Q254.63 67.98 253.10 68.88Q251.56 69.78 249.83 70.38Q248.10 70.99 246.50 70.99Q244.20 70.99 242.86 69.58Q241.51 68.18 241.51 65.68Q241.51 64.85 241.67 63.57Q241.83 62.29 242.15 60.69L241.77 60.69Q239.53 65.62 236.55 68.30Q233.58 70.99 229.80 70.99M232.10 66.96Q233.77 66.96 235.53 65.68Q237.29 64.40 238.86 62.22Q240.42 60.05 241.64 57.36Q242.86 54.67 243.43 51.92L245.80 40.59Q245.10 39.44 243.75 38.86Q242.41 38.29 240.94 38.29Q238.38 38.29 236.33 39.73Q234.28 41.17 232.74 43.54Q231.21 45.90 230.15 48.72Q229.10 51.54 228.58 54.38Q228.07 57.23 228.07 59.54Q228.07 63.50 229.22 65.23Q230.38 66.96 232.10 66.96ZM271.08 70.99Q267.62 70.99 264.81 69.52Q261.99 68.05 260.30 65.14Q258.60 62.22 258.60 57.74Q258.60 54.22 259.82 50.32Q261.03 46.42 263.46 43.02Q265.90 39.63 269.45 37.52Q273 35.41 277.67 35.41Q281.70 35.41 283.94 37.36Q286.18 39.31 286.18 42.77Q286.18 46.16 283.78 49.07Q281.38 51.98 277.19 53.78Q273 55.57 267.62 55.57L265.38 55.57Q265.32 56.27 265.29 56.94Q265.26 57.62 265.26 58.26Q265.26 62.42 267.05 64.69Q268.84 66.96 272.30 66.96Q275.37 66.96 277.77 65.49Q280.17 64.02 281.51 62.35Q282.15 62.80 282.15 63.95Q282.15 65.36 280.97 66.99Q279.78 68.62 277.35 69.81Q274.92 70.99 271.08 70.99M265.96 52.62L266.60 52.62Q270.31 52.62 273.26 51.38Q276.20 50.13 277.90 47.92Q279.59 45.71 279.59 42.77Q279.59 38.48 275.88 38.48Q274.02 38.48 272.46 39.73Q270.89 40.98 269.61 43.06Q268.33 45.14 267.40 47.63Q266.47 50.13 265.96 52.62Z"></path></svg>